<svg width="232.80001220703124px" height="227.639990234375px" xmlns="http://www.w3.org/2000/svg" viewBox="133.59999389648436 -38.8199951171875 232.80001220703124 227.639990234375" style="background: rgb(255, 255, 255) none repeat scroll 0% 0%;" preserveAspectRatio="xMidYMid"><defs><linearGradient id="editing-gradient-gradient" x1="0" x2="1" y1="0.5" y2="0.5" gradientUnits="objectBoundingBox"><stop offset="0" stop-color="#000000"></stop><stop offset="1" stop-color="#000000"></stop></linearGradient></defs><g><g transform="translate(173.45999145507812, 130.22499883174896)"><path d="M31.93-110.60L76.76-14.79L120.70-110.45L120.70-110.45Q122.46-110.16 125.61-110.08L125.61-110.08L125.61-110.08Q128.76-110.01 132.13-110.01L132.13-110.01L132.13-110.01Q135.64-110.01 138.72-110.16L138.72-110.16L138.72-110.16Q141.80-110.30 143.55-110.60L143.55-110.60L143.55-106.79L143.55-106.79Q135.64-106.79 132.64-103.56L132.64-103.56L132.64-103.56Q129.64-100.34 129.64-93.46L129.64-93.46L131.25-20.95L131.25-20.95Q131.40-16.11 132.13-12.96L132.13-12.96L132.13-12.96Q132.86-9.81 134.77-8.06L134.77-8.06L134.77-8.06Q136.52-6.30 139.89-5.57L139.89-5.57L139.89-5.57Q143.26-4.83 148.83-4.83L148.83-4.83L148.83-1.17L148.83-1.17Q145.31-1.17 139.31-1.17L139.31-1.17L139.31-1.17Q133.30-1.17 126.86-1.17L126.86-1.17L126.86-1.17Q120.41-1.17 114.55-1.17L114.55-1.17L114.55-1.17Q108.69-1.17 105.47-1.17L105.47-1.17L105.47-4.83L105.47-4.83Q110.30-4.83 113.45-5.49L113.45-5.49L113.45-5.49Q116.60-6.15 118.36-7.91L118.36-7.91L118.36-7.91Q120.12-9.67 120.85-12.82L120.85-12.82L120.85-12.82Q121.58-15.97 121.58-20.95L121.58-20.95L120.56-97.71L75.73-0.15L73.54-0.15L29.44-94.92L27.98-20.51L27.98-20.51Q27.98-12.01 30.32-8.57L30.32-8.57L30.32-8.57Q32.67-5.13 40.14-4.83L40.14-4.83L40.14-1.17L40.14-1.17Q36.62-1.17 31.93-1.25L31.93-1.25L31.93-1.25Q27.25-1.32 22.27-1.32L22.27-1.32L22.27-1.32Q17.29-1.32 12.60-1.32L12.60-1.32L12.60-1.32Q7.91-1.32 4.25-1.17L4.25-1.17L4.25-4.83L4.25-4.83Q9.08-4.98 12.52-5.57L12.52-5.57L12.52-5.57Q15.97-6.15 18.16-7.76L18.16-7.76L18.16-7.76Q20.36-9.52 21.46-12.60L21.46-12.60L21.46-12.60Q22.56-15.67 22.85-20.95L22.85-20.95L24.76-93.31L24.76-93.31Q24.76-100.63 21.24-103.71L21.24-103.71L21.24-103.71Q17.72-106.79 10.84-106.79L10.84-106.79L10.84-110.60L10.84-110.60Q13.18-110.30 16.19-110.23L16.19-110.23L16.19-110.23Q19.19-110.16 22.12-110.16L22.12-110.16L22.12-110.16Q25.05-110.16 27.69-110.23L27.69-110.23L27.69-110.23Q30.32-110.30 31.93-110.60L31.93-110.60Z" fill="url(#editing-gradient-gradient)"></path></g></g><style>text {
  font-size: 64px;
  font-family: Arial Black;
  dominant-baseline: central;
  text-anchor: middle;
}</style></svg>
